<?xml version="1.0" encoding="utf-8"?>
<!-- Generator: Adobe Illustrator 21.1.0, SVG Export Plug-In . SVG Version: 6.00 Build 0)  -->
<svg version="1.1" id="Layer_1" xmlns="http://www.w3.org/2000/svg" xmlns:xlink="http://www.w3.org/1999/xlink" x="0px" y="0px"
	 viewBox="0 0 841.9 526.1" style="enable-background:new 0 0 841.9 526.1;" xml:space="preserve">
<style type="text/css">
	.st0{fill:#FFFFFF;}
</style>
<g id="_x32_NCi4C_1_">
	<g>
		<g>
			<path class="st0" d="M636.8,159.8c6.9,1.2,12.4,4,16.9,8.8c0.9,0.9,2,1.7,3.1,2.4c5.8,3.2,11.6,6.4,17.4,9.6
				c0.8,0.4,1.7,0.9,2.2,1.6c2.3,3.5,6.1,4.9,9.6,6.8c3.2,1.8,6.6,3.5,8.4,7.3c2.1-1.3,3.7-0.6,5.6,0.9c3.6,2.8,7.6,5.2,11.5,7.8
				c4.6,3,9.1,6.5,14,9c7.7,4,14.7,9,21.9,13.6c0.3,0.2,0.7,0.4,1,0.6c5.6,3.2,11.3,6.3,16.8,9.7c4.2,2.5,8.2,5.3,12.3,8
				c0.3,0.2,0.6,0.5,0.9,0.8c2.8,4.2,7.3,6,11.4,8.4c4,2.4,7.7,5.3,11.8,7.4c6.9,3.6,12.4,9.6,19.8,12.5c2.3,0.9,4.4,2.4,6.5,3.7
				c0.7,0.4,1.3,0.9,1.9,1.5c3.9,3.3,3.9,3.3,2,8.3c-0.2,0.1-0.4,0.4-0.7,0.4c-4.2,0.2-6,2.5-7,6.5c-1.5,6-3.7,11.9-3.2,18.3
				c0.5,6.9,1,13.7,1.5,20.6c0.1,0.9,0.2,1.9,0.1,2.8c-0.2,11.4,0.2,22.8-0.6,34.2c-1,14.4-0.6,28.9-1,43.3
				c-0.3,11-1.4,21.9-1.9,32.9c-0.2,3.3,0.6,6.6,0.7,9.9c0.1,3,0,6,0,9.1c0,1.2-0.1,2.4,0,3.6c1.6,14.2,0.4,28.4,0.3,42.5
				c0,0.1-0.1,0.2-0.5,0.9c-2.2,0.4-4.9,1.1-7.6,1.3c-4.2,0.3-8.5,0.7-12.7,0.4c-6.5-0.6-12.9,0.4-19.4,0.5
				c-4.2,0.1-8.5,0.2-12.7,0.2c-4.3,0-8.7,0-13,0c-3.6,0-7.1,0-10.7,0c-17.9,0.1-35.8,0.2-53.7,0.3c-9.3,0-18.5-0.3-27.8-0.3
				c-8.8,0-17.5,0.2-26.3,0.3c-18,0-36.1-0.1-54.1,0.1c-8.7,0.1-17.4,0.8-26.2,1.2c-1.1,0.1-2.1,0-3.2,0c-17.8,0-35.6,0-53.3,0
				c-12.7,0-25.5,0-38.2,0c-6.2,0-12.4,0.2-18.6,0c-7-0.2-14-1-21-1.1c-6-0.2-11.9,0.2-17.9,0.3c-1.1,0-2.1,0.1-3.2,0.1
				c-9.7,0-19.3-0.1-29,0c-16,0.3-32.1,0.7-48.1,1.1c-5.6,0.1-11.1,0.2-16.7,0.5c-5.7,0.3-11.3,0.9-17,1.2c-8.9,0.4-17.8,1-26.6-0.4
				c-8.1-1.3-16.1-0.7-24.2-0.8c-3.6,0-7.1,0-10.7,0c-13.8,0-27.6-0.3-41.4,0.1c-6,0.2-12,1.2-18,1c-2.6-0.1-5.2,0.2-7.8-0.2
				c-3.6-0.6-7.4-0.8-11.1-0.9c-4.2-0.1-8.5,0.1-12.7-0.1c-6.4-0.2-12.7,0.6-19,1.1c-6.6,0.5-13.2,0.5-19.8,0.7
				c-1.7,0-3.4-0.2-5.2-0.2c-21.9,0-43.8,0-65.7,0c-2.2,0-4.4-0.4-7.1-0.7c-0.3-2.4-0.8-4.6-0.8-6.8c-0.2-11,0.1-22,1.2-32.9
				c0.1-0.9,0-1.9,0-2.8c0-10.3,0-20.7,0-31c0-3.4-0.4-6.9-0.5-10.3c0-4,0.1-7.9,0.3-11.9c0.2-5.3,0.7-10.6-0.7-15.8
				c-0.3-1-0.4-2.1-0.4-3.1c0-23.6-0.1-47.2,0-70.9c0-7.5,0.7-15.1,0.7-22.6c0-5.6-0.8-11.3-1.3-17.1c-2.3,0-4.1,0-5.9,0
				c-2.3-0.1-3.8-1.2-3.7-2.7c0.1-1.4,1.6-2.3,4-2.2c0.4,0,0.8,0.1,1.4,0.2c0.4-4.4,4.6-5.3,7.2-7.7c4.9-4.4,10.2-8.4,15.3-12.5
				c1.9-1.5,3.7-3.1,5.9-4c6.1-2.6,10.8-7.2,15.8-11.2c3.6-2.9,7.3-5.7,11.8-7.2c1.2-0.4,2.3-1.3,3.2-2.3c2.6-2.8,5.7-4.7,9.1-6.3
				c6.1-2.9,12.2-5.8,18.3-8.8c1.1-0.5,2.1-1.1,3.1-1.8c4.5-3.2,8.9-6.6,13.4-9.8c0.6-0.4,1.3-0.7,2-1c0.4-0.2,1.2-0.4,1.2-0.6
				c0-2.9,2.6-3.1,4.2-4.2c1.8-1.3,3.6-2.6,5.4-3.9c3.3-2.4,7.1-4.4,9.8-7.3c4.2-4.6,9.7-6.7,14.7-9.9c1-0.6,1.9-1.5,2.6-2.4
				c2.7-3.3,6-5.6,9.9-7c2.2-0.7,4-1.8,5.5-3.8c0.7-1,1.8-2,3-2.5c6.8-3.3,12.9-7.8,19.2-11.9c1-0.6,1.9-1.5,3-2
				c10.1-4.3,18.2-11.8,27.8-16.9c1.9-1,3.5-2.2,4.7-4.1c0.8-1.3,2.2-2.3,3.5-3c4.1-2.3,7.8-4.8,11.4-7.9c3.1-2.7,7.1-4.6,10.8-6.6
				c3.3-1.7,6.2-3.7,8.7-6.6c2.1-2.4,5.3-3.8,8.3-5.2c1.9-1,3.8-1.8,5-3.7c0.3-0.4,0.6-0.9,1.1-1.2c6.6-3.9,11.5-10.2,19-12.8
				c3.4-1.2,6.5-3.1,8.9-5.9c0.4-0.5,0.9-1,1.5-1.3c6.1-3.6,12.3-7.3,18.5-10.9c1.3-0.7,2.6-1.4,3.8-2.2c5-3.5,9.7-7.4,15-10.3
				c4.4-2.5,8.2-5.4,12.2-8.3c7-5.2,14.6-9.6,22-14.3c0.7-0.4,1.4-0.8,2-1.3c6.3-4.5,12.6-9.1,18.9-13.6c0.5-0.4,1.1-0.8,1.5-1.3
				c3.7-4.5,8.1-7.9,13.3-10.5c2.7-1.4,7.4-1,8.9,1.5c2.3,3.9,6,5.8,9.5,8.2c3.6,2.5,6.9,5.3,10.4,7.9c2,1.5,4.1,2.9,6.1,4.3
				c0.8,0.5,1.6,0.9,2.4,1.5c5.8,4.4,11.5,8.9,17.4,13.2c2.5,1.9,5.4,3.2,8.1,4.9c3.8,2.4,7.5,5,11.2,7.4c2.3,1.5,4.6,3.1,7.1,4.3
				c5.6,2.6,11.1,5.1,15,10.1c0.7,0.9,1.9,1.4,3,1.8c6.2,2.6,12.1,5.7,17.4,10.1c3.9,3.3,8.9,5.2,13.4,7.8c0.9,0.5,2.1,0.9,2.7,1.6
				c4.9,5.5,11.9,7.7,17.9,11.6c1.1,0.7,2.4,1.3,3.2,2.3c2.5,3.2,6,5.1,9.5,6.9c2,1,3.9,2.1,5.2,4.1c0.6,0.9,2,1.7,3.2,1.9
				c2.9,0.4,5,1.7,7.1,3.8c1.9,2.1,4.7,3.4,7.2,4.9c3.9,2.5,8,4.5,11.1,8.2c1.3,1.6,3.8,2.4,5.8,3.3c3.4,1.6,6.9,2.8,9.1,6.1
				c0.3,0.4,0.7,0.8,1.2,1C632.5,153.7,635.2,156.5,636.8,159.8z M32,290.4c-0.5,1.7-1.3,3.4-1.3,5.2c-0.2,9.4,0.4,18.8-0.9,28.2
				c-0.1,0.5,0,1.1,0,1.6c0.1,13,0.2,26,0.3,39c0.1,3.7,0.6,7.4,0.7,11.1c0.2,9-1.6,17.9,0.5,26.9c0.1,0.4,0,0.8,0,1.2
				c0.1,10.2,0.3,20.4,0.3,30.6c0,21.8,0,43.5,0,65.3c0,1.1-0.1,2.1,0,3.2c0.3,3.6,3.7,7.3,7.3,7.6c2.1,0.2,4.2,0.1,6.3,0
				c3.4-0.2,6.8-0.7,10.3-0.7c7-0.1,14,0,21,0c9.6,0,19.1,0,28.7,0c4.7,0,9.5,0,14.2,0c0.4,0,0.8,0,1.2,0c6.7,0.2,13.4,0.5,20.2,0.5
				c36.8,0,73.5,0,110.3,0c7.1,0,14.2,1.8,21.3,0c25.1-0.2,50.2-0.4,75.2-0.5c4.6,0,9.3,0.4,13.9,0.4c4.2,0,8.5-0.4,12.7-0.4
				c5.2-0.1,10.4,0,15.5,0c1.6,0,3.2,0,4.7-0.4c7.4-2.2,15,0.4,22.4-1.1c0.1,0,0.3,0,0.4,0.1c5.9,1.7,11.8,1.5,17.7,0
				c0.8-0.2,1.6-0.1,2.4-0.1c33.3-0.1,66.6-0.2,100-0.3c4.8,0,9.5,0.3,14.3,0.2c5.8-0.1,11.6-1.4,17.4,0c0.4,0.1,0.8,0.1,1.2,0
				c4.2-1,8.4-0.5,12.6-0.3c6.8,0.2,13.7,0.1,20.6,0c3.6,0,7.1-0.4,10.7-0.4c4.4,0,8.7,0.4,13.1,0.4c21.2,0,42.4,0,63.6,0
				c0.5,0,1.1,0,1.6,0c5.4-0.6,10.8-1.2,16.2,0.1c1.1,0.3,2.4,0,3.5-0.1c3-0.2,6.1-0.5,9.1-0.5c4.8,0.1,9.5,0.7,14.3,0.7
				c21.2,0.1,42.5,0,63.7,0c6.1,0,7.6-1.4,8.2-7.5c0.1-0.9,0-1.9,0-2.8c0-24.8,0-49.7,0-74.5c0-2-0.4-3.9-0.6-5.9
				c-0.2-2.2-0.6-4.4-0.7-6.6c-0.1-3.8,0.5-7.7,0.1-11.5c-0.4-3.6-0.3-7.1,0.3-10.6c0.3-1.8,0.5-3.7,0.5-5.5c0.1-7,0-14,0-21.1
				c0.1-13.4,0.2-26.8,0.3-40.2c0-2.1-0.3-4.2-0.4-6.3c-0.1-2.9-0.1-5.8,0-8.7c0-2.1,0.5-4.4,0-6.3c-0.7-2.6-1.8-5.3-3.5-7.4
				c-0.9-1.1-3.4-1-5.2-1c-8.9-0.1-17.8,0-26.7-0.1c-2.3,0-4.6-0.8-6.9-1.2c-1-0.2-2.2-0.6-2.9-0.2c-3.1,1.6-6.2,1.9-9.6,1.1
				c-0.9-0.2-1.8,0.1-2.8,0.1c-2.6,0.2-5.3,0.5-7.9,0.5c-6.5,0-13-0.2-19.5-0.2c-9.8,0-19.6,0.3-29.5,0.2c-9.6,0-19.3-1.2-28.8,2
				c-0.6,0.2-1.3,0.1-2,0.1c-4.5,0-8.9,0-13.4,0c-8.4,0.1-16.7,0.1-25.1,0.3c-1.8,0-3.7,0.4-5.3,1.1c-3.5,1.7-7.1,1.8-10.5,0.6
				c-3.9-1.3-7.7-1.2-11.6-1.5c-4.9-0.4-9.5,0.5-14.1,1.3c-5.9,1-11.6,0.6-17.4-0.3c-3.8-0.6-7.6-1.2-11.4-1.3
				c-13-0.2-26-0.1-39-0.1c-5.3,0-10.6,0.3-15.8-1.4c-5.3,1.5-10.7,1.5-16.2,1.5c-11-0.1-22,0-33.1,0c-2.1,0-4.4,0-6.3,0.7
				c-4.6,1.7-9.3,1.8-14.1,1.7c-7.6-0.1-15.1-0.3-22.7-0.2c-3.3,0-6.5,0-9.7-1.2c-2.3-0.9-5.2-0.4-7.8-0.3c-2.6,0.1-5.2,0.5-7.8,0.7
				c-2.9,0.2-5.8,0.3-8.7,0.5c-2.4,0.2-4.7,0.6-7.1,0.6c-11,0.1-22,0.1-33.1,0c-2.7,0-5.5-0.5-8.2-1.2c-2-0.5-3.8-0.6-5.8-0.2
				c-1.5,0.3-3.2,0.2-4.6-0.2c-4.1-1.3-8.1-1.4-12.1,0.2c-3,1.2-6.1,1.4-9.3,1.4c-11.8-0.1-23.6-0.1-35.4,0c-2.5,0-5,0.6-7.4,1.2
				c-1.6,0.3-3,0.6-4.6,0.3c-8.8-1.7-17.6-1.5-26.4,0.2c-1.5,0.3-3.3,0.8-4.7,0.4c-3.3-1.2-6.4-1-9.7-0.6c-1.5,0.2-3.2-0.2-4.7-0.3
				c-4.9-0.4-9.8-1-14.6-1.1c-14.1-0.1-28.1,0-42.2-0.1c-2.1,0-4.2-0.4-6.2-1c-2-0.7-3.7-0.7-5.8-0.2c-3.7,0.9-7.5,1.6-11.4,1.1
				c-3-0.4-6.1-0.6-9.1-0.3c-10.9,0.8-21.7,1.1-32.5-0.5c-1.7-0.3-3.4-0.7-5.1-0.8c-10.3-0.5-20.6-1-31-1.3
				C37.5,293.8,34.4,293.9,32,290.4z M259,233.8c-0.4-0.1-0.8-0.2-1.3-0.3c-0.3,0.5-0.4,1-0.8,1.4c-4,4.9-6,10.6-7.2,16.6
				c-0.7,3.5-1.2,7-1.7,10.6c-0.2,1.4-0.9,2.3-2.3,2.2c-1.4-0.1-1.6-1.2-1.5-2.3c0.1-4,0.2-7.9,0.3-11.9c0-1.6,0.2-3.2,0-4.7
				c-0.7-5.5,0-10.8,1.4-16.1c1.5-5.6,2.5-11.3,3.6-17c0.2-0.8-0.1-1.6,0.1-2.4c0.7-3.3,1.2-6.8,2.4-10c1.9-5.1,4.2-10,6.4-14.9
				c0.5-1.1,0.9-2.2,1.6-3.2c1.7-2.3,2.7-4.8,3.3-7.6c0.9-3.8,2.9-7,5.6-9.9c4.2-4.4,8.1-9.1,12.2-13.6c1.3-1.5,2.7-3,4.3-4
				c2.4-1.5,4.3-3.4,5.9-5.7c2.2-3.1,4.3-6.3,8.1-7.9c1.4-0.6,2.4-2.4,3.6-3.6c0.9-0.9,1.9-1.8,2.9-2.6c2-1.5,4.2-2.8,6.2-4.2
				c3.3-2.2,6.6-4.4,9.9-6.7c0.7-0.5,1.8-1,2.1-1.7c1.3-3.1,3.9-4.5,6.6-6c1-0.6,1.9-1.4,2.8-2.1c2.3-2,4.5-4.1,6.9-5.9
				c2.1-1.6,4.4-2.9,7.3-2.7c1.2,0.1,2.5-0.6,3.7-1.2c3.8-1.8,7.6-3.7,11.5-5.5c1.2-0.5,2.5-0.9,3.8-0.9c2.9,0.1,5.5-0.4,8-1.7
				c1.2-0.6,2.5-0.8,3.7-1.3c5.3-2,10.9-2,16.4-2.5c5.8-0.5,11.4-2.2,17.3-1.8c1.9,0.1,3.9-0.7,5.8-1.1c0.8-0.1,1.6-0.5,2.3-0.4
				c5.2,0.7,10.6,0.4,15.5,2.8c1,0.5,2.3,0.6,3.4,0.8c6.9,1,13.8,1.9,20.8,2.9c0.4,0.1,0.7,0.3,1.1,0.5c2.8,1.5,5.7,2,8.8,1.8
				c0.8-0.1,1.7,0,2.3,0.3c6.4,2.9,13.6,3.6,19.6,7.5c4.6,3,9.3,5.9,14,8.8c0.3,0.2,0.6,0.6,0.9,0.8c1.8,1.3,3.5,2.8,5.4,4
				c4.4,3,8.9,5.9,11.8,10.4c1.4,2.1,3,3.6,5.2,4.6c3.8,1.7,7.5,3.4,10.1,6.9c1.2,1.6,2.5,0.8,3.9,0.5c0.4,0.6,0.7,1.3,1.2,1.7
				c4,3,6.4,7.8,11.3,9.8c0.8,0.3,1.4,1.2,2.1,1.8c4,3.5,6.7,8.1,10.2,12c7.8,8.5,12,19.2,15.6,30.1c2.4,7.3,4.7,14.6,7,21.9
				c0.4,1.1,0.8,2.3,1,3.4c1.2,8.1,3.8,16,4.1,24.2c0.1,3,0.9,6,0.7,9c-0.2,4.5-0.9,8.9-1.6,13.4c-0.3,2-1.2,3.9-2.2,6.8
				c-1.3-1.6-2.2-2.4-2.6-3.3c-0.6-1.4-0.9-3-1.5-4.5c-1.7-4.9-3.2-9.8-5.1-14.6c-1-2.6-2.6-4.9-4-7.3c-2.3-4-4.7-8-4.4-12.9
				c0.1-1.1-0.2-2.2-1.6-2.2c-1.4,0-1.6,1.2-1.6,2.3c0,1.9,0,3.7,0.3,5.6c0.9,5.2,1.9,10.4,2.9,15.6c0.3,1.9,0.6,3.9,0.7,5.9
				c0,0.6-0.6,1.2-1.3,2.3c-2.4-4.3-4-8.4-6.7-11.6c-2.8-3.4-4-7.6-6.1-11.4c-2.8,1-2.4,3.2-2.1,4.8c1.4,7.8,0.8,15.9,3.4,23.5
				c0.3,0.7,0.1,1.6,0.2,2.4c0.6,4.9,1.2,9.7,3.3,14.2c0.9,1.9,1.9,2.8,4.2,2.8c2.1,0,4.2,0.3,6.1,1.1c2,0.9,3.7,0.7,5.7,0
				c1.4-0.5,3.1-0.9,4.6-0.8c2.8,0.2,5.5,0.9,8.2,1.2c5.3,0.5,10.6,1.1,15.8-0.4c5-1.4,9.9-1.3,14.9-0.5c3.2,0.6,6.6,0.6,9.8,0.3
				c2.9-0.2,5.7-0.8,8.6-0.2c1.4,0.3,2.9,0,4.3-0.3c2-0.5,3.9-0.6,5.8,0.4c3.5,1.9,7.2,1.6,10.9,1.2c2.8-0.2,5.5-0.4,8.3-0.5
				c2.2-0.1,4.6,0.2,6.7-0.2c6.4-1.3,12.9-1.6,19.4-1.5c3.3,0,6.6-0.7,9.9-0.7c7,0.1,14,0.5,21,0.7c3.3,0.1,6.6-0.4,9.9-0.4
				c3.7,0,7.4,0.4,11.1,0.4c6.4,0.1,12.8,0.4,19.1-0.1c5.4-0.4,10.8-0.5,16.2,0c3.9,0.3,7.8-0.4,12.5-0.7c-1-1.5-1.6-2.6-2.4-3.6
				c-1.8-2.1-3.8-4.1-5.7-6.1c-0.6-0.7-1.2-1.4-2-1.9c-3.1-1.7-6.3-3.4-9.5-5c-3.7-2-7.6-3.8-11.2-6c-8.4-5.1-16.6-10.3-24.9-15.5
				c-3.4-2.1-6.7-4.2-10.1-6.2c-0.9-0.6-1.8-1.3-2.7-1.5c-3.4-0.9-6.2-3-8.9-5.1c-0.8-0.6-1.8-1.1-2.7-1.6
				c-7.4-3.5-14.9-7-22.2-10.7c-2.5-1.2-4.7-2.9-6.9-4.6c-3.4-2.8-6.8-5.5-11-7.1c-3.2-1.2-6.1-3-8.1-6.1c-0.8-1.2-2.4-1.9-3.7-2.8
				c-3.1-2-6.2-4-9.3-6.1c-1.9-1.2-3.6-2.6-5.5-3.7c-2.7-1.5-5.5-2.7-8.2-4.1c-2.1-1.1-3.9-2.6-5.9-3.9c-6.3-4.1-12.5-8.4-19-12.2
				c-2.8-1.7-5.7-3.3-8.3-5.4c-4.1-3.3-8.4-6.4-13.4-8.4c-2.7-1-5.6-2.2-7.6-4.1c-3.3-3.4-7.2-5.7-11-8.3c-2.7-1.8-5.4-3.8-8.1-5.8
				c-4.2-3.2-8.4-6.4-12.6-9.6c-4.4-3.3-8.9-6.7-13.3-10c-2.3-1.8-4.3-4.1-6.9-5.3c-6.7-3.1-11.3-9.1-17.8-12.4
				c-5.3-2.7-10.2-5.9-14.7-9.8c-4.7-4-10.5-6.6-15.9-9.6c-2.7-1.5-4.9-4.4-7.7-5.2c-4.6-1.4-8.4-4-12.3-6.3
				c-7.3-4.3-14.4-8.9-21.6-13.4c-4.6-2.9-9.2-5.8-13.7-8.8c-2.4-1.6-4.7-3.4-6.9-5.3c-2.3-2-4.7-3.8-7.8-4.6c-1.8-0.4-3-0.1-4,1.5
				c-1.7,2.6-4,4.5-6.9,5.8c-4.1,1.9-7.8,4.4-11.2,7.5c-1.8,1.7-4,3-6.2,4.3c-7.7,4.7-15.3,9.4-23,14.1c-0.3,0.2-0.7,0.5-0.9,0.7
				c-6,6-13.9,9.1-20.6,14.1c-4,3-8.4,5.4-12.6,8.3c-3.4,2.3-6.5,5-10,7.2c-4.3,2.7-8.7,5-13.1,7.5c-0.6,0.3-1.1,0.8-1.6,1.2
				c-3.8,3.3-7.4,6.8-11.3,10c-2.1,1.7-4.6,3.2-7.2,4.1c-6.1,2.1-11.3,5.8-16.5,9.4c-3,2.1-5.6,5.1-8.9,6.6
				c-7.1,3.2-12.8,8.5-18.9,13c-5.8,4.2-11.5,8.5-18,11.6c-3,1.4-5.8,3-7.9,5.8c-0.7,1-2.1,1.5-3.3,2.1c-4.1,2.2-8.4,4-11.5,7.7
				c-0.8,1-2.2,1.5-3.3,2.1c-2.9,1.7-5.9,3.1-8.6,5c-4.7,3.1-9,7-14,9.6c-8.2,4.3-14.6,11.4-23.4,14.9c-1.5,0.6-2.7,2.1-4.1,3.1
				c-1.1,0.9-2.3,1.8-3.5,2.6c-3.9,2.8-7.7,5.6-11.6,8.3c-1.3,0.9-2.7,1.7-4.1,2.4c-2.1,1.2-4.5,1.9-6.2,3.4
				c-7.3,6.2-16.5,9.4-24.1,15.3c-6.6,5.2-14.4,8.8-21.7,13.1c-4.7,2.8-9.5,5.3-14,8.3c-5,3.3-9.7,6.9-14.6,10.3
				c-3.4,2.4-3.7,3.4-2.3,8.1c2.8,0.1,5.6,0.3,8.5,0.3c3.6,0,7.1,0,10.6,1.4c1.1,0.4,2.6,0.1,3.8,0c3.9-0.4,7.9-1,11.8-1.2
				c4.1-0.2,8.2,0.2,12.3-0.1c4.2-0.3,8.3,2,12.6,0.2c0.9-0.4,2.3,0.3,3.4,0.8c2.2,1,4.3,1.4,6.5,0.2c2-1,4.1-0.8,6.1,0.1
				c1.5,0.7,3,0.9,4.5,0c2.4-1.5,5-1.4,7.7-1c1,0.1,2.1,0.5,3.1,0.2c5-1.1,9.7,0.2,14.6,0.7c4.5,0.5,9.2,1.3,13.4,0.2
				c5.1-1.3,10.2-1.6,15.3-1.5c1.9,0,4,0.3,5.8,1.1c2.1,0.9,4,0.7,6.1,0.4c3.9-0.6,7.8-1.4,11.8-1.5c10.2-0.2,20.4,0,30.7-0.1
				c4.1-0.1,7.7,0.3,10,4.8c0.2-2.2,0.3-3.7,0.5-5.4c1.1,0.1,2-0.1,2.7,0.2c2.9,1,5.9,0.5,8.6-0.4c3.2-1.1,6-1.5,9.1,0
				c2.2,1.1,4.2-0.4,6-1.4c0.9-0.5,1.2-2.1,1.6-3.3c0.5-1.8,1-3.6,1-5.5c0-4.5,1.4-8.9,0.5-13.4c-1.2-6.1-2.1-12.2-3.1-18.4
				c-0.1-0.7-0.4-1.3-0.7-2.3c-0.7,0.6-1.2,0.9-1.4,1.3c-1.1,2.4-2.3,4.8-3.2,7.3c-1.2,3.5-2.3,7-3.2,10.6c-0.7,2.9-1.1,6-1.6,9
				c-0.3,2.1-1.4,2.6-3.8,1.7c0-3.6,0.1-7.3,0-10.9c-0.2-3.7-0.3-7.4-1.1-11C260.4,240.7,261.1,236.9,259,233.8z M546.4,238.7
				c-0.3,0.2-0.7,0.4-1,0.6c-0.1,4.9-0.3,9.7-0.3,14.6c0,1.2-0.2,2.1-1.5,2.4c-1.2,0.3-1.9-0.2-2.4-1.4c-0.6-1.7-1.5-3.4-2.6-4.9
				c-3.4-4.2-6.7-8.6-10.5-12.4c-4-4-8.9-6.5-15-6.2c-3.4,0.2-6.9,0.1-10.3,0c-2.3-0.1-4,0.6-5.7,2.2c-1.9,1.8-4.2,3.2-6.2,4.9
				c-0.9,0.8-2,1.8-2.3,2.9c-2.7,8.5-5.3,16.9-4.6,26c0.2,3.1,1.2,5.8,2.5,8.6c3.1,0,6,0,8.9,0c0.8,0,1.7,0.1,2.2,0.5
				c0.6,0.5,0.8,1.4,1.3,2.4c3.9-4.4,8-2.8,12.1-0.7c0.7-0.8,1.4-1.5,2.4-2.5c3.5,3.2,7.8,2.7,12,2.8c6.6,0.1,13.2,0.1,19.8,0.7
				c5.1,0.5,10-0.1,15.2-1.6c-0.1-1.1-0.1-2.3-0.4-3.3c-0.7-2.2-1.5-4.3-2.2-6.4c-1.5-4-3.5-7.8-4.3-11.9c-1-5.4-3.6-10.2-5.3-15.3
				C548.1,239.9,547.1,239.3,546.4,238.7z M302.3,261.7c-0.6-1-0.9-1.4-1-1.9c-0.6-3.2-1.2-6.5-1.6-9.8c-0.5-4.6-0.9-9.2-1.4-13.8
				c-0.1-0.7-0.7-1.4-1.3-2.5c-10.6,12.7-13.3,27.2-13.8,42.3c3.2,2.1,6.1,3.2,9.4,2.9c1.3-0.1,2.6,0.2,4,0.3
				c4.5,0.4,9,1.4,13.4,1.1c8.7-0.6,17.5-0.3,26.2-0.4c1.1,0,2.1,0.1,3.2,0.1c2.1-0.1,4.1-0.3,6.2-0.4c2.2-0.1,4.4,0,6.6,0
				c2.7,0,3.7,2.6,5.6,3.9c0.4-2.3,0.6-4.4,1.2-6.5c1.7-6.8,0.2-13.1-3-19.1c-1.6-2.9-3.2-5.8-5-8.6c-1.1-1.8-2.3-3.6-3.8-4.9
				c-2.2-1.9-4.5-3.7-7.1-5.1c-2.5-1.4-5.3-2.3-8.3-1.8c-2.3,0.4-4.7,0.9-7,1.1c-5.7,0.5-10,2.9-12.8,8c-2.1,3.8-4.4,7.5-6.7,11.2
				C304.4,259.2,303.4,260.2,302.3,261.7z M423.7,269.2c1.2-1.5,2.2-2.2,2.6-3.1c1.3-3,2.5-6.1,3.6-9.2c1.3-3.5,3.1-6.6,5.4-9.6
				c4.2-5.5,8.6-10.7,14.2-14.8c2.7-2,2.4-4.4-0.3-6.3c-0.5-0.4-1.1-0.7-1.6-1.2c-3.8-4.4-7.5-8.9-11.2-13.4
				c-2.4-2.9-4.3-6.4-7.7-8.5c-3.4-2-5-5.4-6.1-8.9c-0.3-0.8-0.4-1.7-0.8-3.3c-1.4,1-2.5,1.5-3.3,2.4c-1.6,1.6-3.1,3.2-4.6,4.9
				c-1.7,2-3.5,3.9-5,6c-2.4,3.3-4.7,6.7-7.1,10c-1.4,1.9-2.9,3.8-4.1,5.8c-3.3,5.6-2.8,10.4,1.4,14.7c2.7,2.7,5.4,5.5,8.3,8
				c4.8,4,8.2,8.9,10.6,14.6C419.6,261.2,421.5,264.7,423.7,269.2z M372.8,277.8c6.9,1.2,13.7,2,20.6,1.5c2.6-0.2,5.3,0.1,7.9,0.1
				c3,0,6,0.1,9.1,0c2.1-0.1,4.2-0.4,6.3-0.5c3.4-0.1,4.2-0.9,3.7-4.4c-0.7-4.5-2.7-8.6-5.4-12.2c-6.3-8.8-14.3-15.8-21.8-22.5
				c-3.8,0.5-7.2,0.8-10.5,1.4c-0.9,0.2-2.1,0.6-2.6,1.4c-1.5,2-3,4.1-3.8,6.4c-1.4,4.1-2.5,8.4-3.5,12.6
				C371.5,266.9,370.9,272.1,372.8,277.8z M428.3,275.1c3.3,1.8,6.1,3.9,9.7,3.9c10.7-0.2,21.4-0.4,32.1-0.6c0.3,0,0.7-0.3,1-0.5
				c0.2-3.4,0.7-6.7,0.6-9.9c-0.1-6.1-1.4-12-3.5-17.8c-1.7-4.5-4.3-8.1-7.3-11.7c-1.4-1.7-5.8-2.7-7.3-1.5
				c-4.6,3.8-10.1,6.6-13.6,11.9c-3.4,5.1-6.5,10.3-9.1,15.7C429.3,267.9,428.5,271.3,428.3,275.1z M367.6,169c0,2.7-0.1,5.3,0,8
				c0.2,3.5,0.8,6.7,4.1,9c1.7,1.2,2.9,3.1,4,4.9c1.1,1.7,2.5,2.5,4.4,2.9c4.1,0.9,8.2,2,12.3,3.2c4.1,1.2,10.9-0.6,13.8-3.9
				c3.7-4.3,6.2-9,7.1-14.7c0.9-5.9,1.2-11.8,0.5-17.7c-0.3-2.8-1.7-5.5-2.9-8.1c-1.4-2.9-3.5-5.6-5-8.5c-1.6-3.1-4.1-4.7-7.3-5.5
				c-3.7-0.8-7.5-1.3-11.3-2.1c-1.3-0.3-2.2-0.2-3.1,0.9c-2.2,2.6-4.6,5.1-7,7.6C370.8,151.7,366,159,367.6,169z M468.2,168.7
				c-0.1,0-0.3,0-0.4,0c0-1.2,0.1-2.4,0-3.6c-0.3-2.9,0.1-6.1-1.1-8.5c-3-5.9-6.5-11.5-11.9-15.7c-2.1-1.7-4.4-2.8-7.2-2.8
				c-1.4,0-2.8-0.5-4.2-1c-3.8-1.3-7.2-0.6-9.9,2.4c-1.3,1.5-2.5,3.1-3.9,4.5c-3.9,3.8-5,8.9-6.8,13.8c-0.7,1.8-0.9,3.8-1.2,5.8
				c-0.5,4.8,0.8,9.2,2.9,13.4c1.8,3.7,3.6,7.4,5.5,11c0.5,1,1.3,2.2,2.2,2.7c4.4,2.4,9,4.6,13.5,6.7c0.7,0.4,1.8,0.4,2.6,0.2
				c5.7-1,10.9-2.8,14.7-7.6c0.1-0.1,0.2-0.2,0.3-0.3c1.8-1,2.6-2.7,2.8-4.5C467.1,179.8,467.6,174.2,468.2,168.7z"/>
			<path class="st0" d="M399.8,412.7c-4.7,3.6-9.6,4.3-14.7,4.4c-2.8,0-5.5,0.6-8.2,1.1c-2.7,0.6-5.2,0.6-7.7-1.5
				c-0.8,0.8-1.9,1.4-2.1,2.3c-1,4-2.3,7.9-2.5,12c-0.6,8.6-0.6,17.2-0.9,25.8c-0.1,2-0.2,4,0,6c0.3,3.5,0.4,6.8-0.6,10.2
				c-0.4,1.5-0.3,3.1-0.4,4.6c-1.8,1.5-3.8,1.3-5.4,0.5c-3.4-1.7-6.6-1.4-9.9-0.2c-0.7,0.3-1.5,0.3-2.7,0.6c-0.4-1.3-1-2.5-1.1-3.7
				c-0.5-5.1-1.1-10.3-1.3-15.4c-0.2-4.9,0-9.8-0.1-14.7c-0.1-3.6,0.5-7.1,1.1-10.6c0.6-3.2,0.2-6.6,0.1-9.9c0-1.3-0.8-2.7-0.6-3.9
				c1.4-8.4-1.7-16.8-0.3-25.2c0.6-3.8-0.3-7.9-0.3-11.9c-0.1-11.8,0.1-23.6-0.1-35.4c-0.1-5.3-0.6-10.6-0.7-15.9
				c0-1.5,0.4-3,0.7-5.2c4,3.3,8.1,2.9,12.2,2.9c2.4,0,4.7-0.3,6.8-1.7c1.5-1.1,3.1-1.3,5-0.4c-0.1,0.7,0,1.5-0.3,1.9
				c-1.3,1.4-0.9,3-0.4,4.5c1.3,4.5,1.1,8.8,0,13.3c-0.6,2.8-0.4,5.8-0.4,8.6c0,1.6,0.1,3.2,0.2,4.8c0.4,6.7,0.6,13.5,1.2,20.2
				c0.1,1.6,1.2,3.1,1.8,4.5c3.9-0.5,2.1-3.5,3.1-5.1c1.2-0.7,2-0.2,2.1,1.1c0.1,1.8,0,3.7,0,6c8,0.5,15.8-1.9,22.7,1.6
				c2.4-1.1,3.1-2.8,3.5-4.9c1.3-6.5,1.8-13.1,1.6-19.8c0-1.3-0.2-2.8,0.2-4c1.7-4.8,1.3-9.7,1.4-14.6c0.1-6.2,0.3-12.4,0.5-18.7
				c0-0.6,0.2-1.3,0.4-2.4c1.4,0.3,2.7,0.3,3.7,0.8c2.3,1.3,4.7,1.6,7.3,1.5c1.4-0.1,2.9,0.1,4.4,0.3c3.5,0.5,4.1,1.1,4.3,4.5
				c0.2,2.6,0.3,5.3,0.3,7.9c0.1,4.9,0.3,9.7,1.1,14.6c0.8,5.3,0.5,10.8,0.5,16.3c0.1,10.1,0,20.2,0,30.3c0,5.8,0.2,11.6,1.1,17.4
				c1,6.5,1,13.2,0.9,19.8c-0.1,7.7,0.7,15.3,2.8,22.8c1,3.6,0.5,7.6,0.4,11.5c0,1.5-0.9,2.8-2.7,3c-1.8,0.2-3.7,0.5-5.4,0.4
				c-4.2-0.4-8.3-1.9-12.4,0.3c-1.3,0.7-2.4,0.2-3.4-1c-2.3-2.8-3.1-6.1-3.2-9.6c-0.1-3.6,0-7.2,0-10.8c-0.1-8.3-0.3-16.7-0.5-25
				c0-0.9-0.2-1.8-0.4-2.7c-0.5-3.5-1-7.1-1.5-10.6C400.7,415.1,400.3,414.1,399.8,412.7z M351.8,388.6c1.7,0.9,2.6,0.8,2.9-0.8
				c0-0.2-0.1-0.5-0.2-1C353.6,387.3,352.8,387.9,351.8,388.6z"/>
			<path class="st0" d="M301.4,327.1c0.8,0.1,1.8,0.2,2.9,0.2c2.4,0,4.7-0.1,7.1-0.1c5.7,0,11.3,0,17.1,0c0.7,2.5-1,4-2.1,5.6
				c-5.1,7-10.2,13.9-15.3,20.8c-8.3,11.5-16.5,23.1-24.7,34.6c-1.6,2.2-3.4,4.3-5.3,6.6c1.3,2.2,2.3,4.2,3.7,6
				c9.1,11.4,17.4,23.4,25.5,35.5c0.9,1.3,1.8,2.7,2.9,3.8c1.6,1.8,2.6,3.6,1.9,6.3c2.2,0.1,3.6,1.2,4.7,3c3.2,5,6.4,10,10,14.8
				c3.1,4,5,8.4,6,13.8c-1.3,0.3-2.5,0.7-3.7,0.7c-4.4,0-8.8-0.1-13.1-0.3c-2.4-0.1-4.1-1.4-5.7-3.2c-8.7-10.5-17.5-20.9-26.3-31.4
				c-3.6-4.3-6.8-8.8-10.6-12.9c-4.1-4.5-7.9-9.2-11.1-14.4c-0.2-0.3-0.7-0.4-1.1-0.6c-1.7,1.4-1.3,3.3-1.3,5.1
				c0,14.9,0,29.7,0,44.6c0,4.2-0.4,8.4-0.7,13.1c-2,0-3.6,0.3-5.1-0.1c-3.1-0.8-6.3-1.4-9.5-1.3c-2.5,0.1-5.1-0.3-7.9-0.5
				c-0.4-2.3-1.1-4.4-1.1-6.4c0.2-9.1,0.6-18.3,0.8-27.4c0.1-2.9-0.5-5.8-0.6-8.7c-0.1-9.7,0-19.4,0-29.1c0-8.8,0-17.5,0-26.3
				c-0.1-10.9-0.2-21.8-0.3-32.6c0-0.4,0.1-0.9,0-1.2c-2.4-5.5,0-10.9,0.4-16.4c0-0.2,0.1-0.5,0.3-0.7c0.1-0.2,0.3-0.4,0.6-0.7
				c3.1,1.9,6.4,1.9,9.9,2c3.1,0.1,6.3,0.5,9.8,0.8c0,1.9,0,3.4,0,4.8c0,10.5,0,21,0,31.5c0,3.8,1.6,6.8,4.5,9.7
				c0.5-1,1-1.6,1.2-2.3c1.2-4.1,2.3-8.2,6.2-10.7c0.6-0.4,1.2-1.1,1.5-1.8c1.9-4.9,5.7-8.2,8.9-12.1c4.8-6,10.1-11.6,15.6-16.9
				C298.7,330.8,299.9,329,301.4,327.1z"/>
			<path class="st0" d="M197.3,432c-3.5,0.5-6.2,1.1-8.9,1.2c-5.6,0.2-11.2,0-16.7,0.1c-1.3,0-2.8,0-3.9,0.6
				c-5,2.9-10.3,1.6-15.5,1.2c-5-0.4-11.9,3.4-13.3,8.2c-2.9,9.6-7.8,18.2-11.9,27.2c-0.8,1.7-1.2,3.5-1.7,5.3
				c-1.1,3.8-3.2,5.3-7.1,5.3c-2.1,0-4.2,0.3-6.3,0.4c-1.2,0-2.4-0.1-3.5-0.3c-5.4-1-7.7-4.7-4.9-9.4c4-6.7,5.5-14.3,8.1-21.5
				c1.8-5,4.1-9.7,6.7-14.3c0.9-1.5,1.7-3,2.2-4.6c1.8-6.6,4.7-12.6,7.9-18.6c2.6-4.8,4.8-9.7,7.2-14.6c0.1-0.1,0.1-0.2,0.1-0.4
				c2.2-10.6,8.7-19.5,10.9-30.1c0.3-1.5,1.2-2.9,1.8-4.4c3.5-8.7,7-17.4,10.5-26.2c0.6-1.6,1.4-2.8,3.3-2.9c2-0.1,4.2-1.8,5.5,1.2
				c3-2,5.8-3.8,9.6-2.2c1.5,0.6,2.4,1.4,3,2.8c1.1,2.3,2.4,4.4,3.5,6.7c0.7,1.4,1.5,2.8,2,4.3c1.6,5.3,3.1,10.6,4.7,16
				c0.1,0.5,0.2,1.1,0.5,1.5c5,5.4,6.3,12.4,9,18.9c3.7,9.1,6.9,18.3,10.4,27.5c2.3,5.9,4.8,11.8,7.2,17.7
				c3.7,9.5,6.8,19.2,9.8,28.9c0.5,1.5,0.8,3.1,1,4.6c0.3,2.9,1.2,5.6,3.1,8c1.7,2.2,2.3,5,1.9,8c-4.1,1.2-8.3,1-12.3,0.5
				c-2.7-0.4-5-2.1-6-5.1c-1.6-4.8-3.4-9.5-5.2-14.2c-0.5-1.3-1.2-2.6-1.9-3.9c-2.1-4.3-4.3-8.5-6.4-12.8
				C200.1,438.8,198.7,435.1,197.3,432z M167.9,363c-1.1,3.2-2.2,6.3-3.2,9.5c-1.3,3.9-2,8-3.8,11.6c-3,5.9-4.4,12.1-5.3,18.5
				c-0.5,3.3-0.1,6.3,0.8,9.3c1.5,0.6,3.1,1.1,4.4,1.9c2.1,1.3,4.1,1.4,6.3,0.3c1.5-0.8,3.1-1,4.9-0.4c2.9,0.8,5.9,0.8,8.8,1.2
				c1.9-3.4,2.3-6.4,1.3-9.9c-1.5-5.2-1.5-10.7-4-15.6c-0.5-1-0.5-2.3-0.7-3.5c-1.4-6.4-2.7-12.9-4.2-19.3
				C172.6,364.1,171.1,362.6,167.9,363z"/>
			<path class="st0" d="M489.3,447.5c1.8-2.8,3.6-5.5,5.2-8.3c1.2-2.1,2.2-4.2,3-6.5c2.5-7.2,4.2-14.5,4-22.1c-0.1-4-0.1-8,0-11.9
				c0.1-5,0.6-10,0.7-15.1c0.1-3.3-0.2-6.6-0.2-9.9c-0.2-14.8-0.3-29.7-0.5-44.5c0-1.3,0-2.6,0-4.2c2.1-0.2,4-0.4,5.8-0.5
				c3-0.2,6.1-0.4,9.1-0.5c1.3,0,2.7,0,4,0.2c2.7,0.5,3.3,1.2,3.3,4c-0.1,8.9-0.4,17.8-0.4,26.6c0,7.2,0.4,14.3,0.4,21.5
				c0,8.6,0,17.2-0.3,25.8c-0.4,9.1-1.3,18.2-1.6,27.3c-0.2,5.8-1,11.3-4,16.4c-2.5,4.1-4.7,8.3-7.1,12.4c-1.8,3-4.1,5.4-7.1,7.4
				c-2,1.3-3.7,3-5.6,4.5c-2.9,2.2-5.9,4-9.8,3.6c-0.3,0-0.5,0-0.8,0c-6.4,0.7-12.3-0.8-17.8-4.1c-0.9-0.5-1.9-1.1-2.9-1.3
				c-3.6-0.8-5.9-3.2-8-6c-6.3-8.5-11.7-17.5-13.9-27.9c-1.5-6.8-1.8-13.9-2.3-20.9c-0.3-3.6-0.1-7.1-1.2-10.6
				c-0.5-1.5-0.3-3.1-0.4-4.7c-0.2-7.1-0.3-14.2-1.2-21.4c-1.1-8.6-0.9-17.4,0.3-26.2c0.7-5.3,0.4-10.9,0.3-16.3
				c-0.1-2.5,0.7-4.4,2.4-6c0.8-0.7,2-1.4,3-1.4c4.5-0.2,9,0.1,13.3-1.4c1.9-0.7,3.6,0.8,3.8,2.9c0.1,1.1,0.1,2.1,0.1,3.2
				c0,20.2,0,40.3,0,60.5c0,2.2,0.1,4.5,0.6,6.7c1.3,7.1,1.5,14.2,1.6,21.4c0,2.1,0.4,4.2,1.1,6.2c1.4,4.3,3.2,8.4,4.8,12.6
				c1.8,4.7,5.1,7.6,10,8.7c0.8,0.2,1.6,0.3,2.4,0.2C485.3,447.7,487.5,447.6,489.3,447.5z"/>
			<path class="st0" d="M673.5,476.9c-5.4-0.4-10.3-0.8-15.1-1.1c-1-0.1-2.1-0.2-3.1,0c-2.3,0.5-4.4,0-6.6-0.4
				c-4.7-1-9.5-2.4-14.3-0.2c-2.2,1-4.3,0.8-6.5-0.2c-3.3-1.5-6.6-1.7-9.8,0.3c-1,0.6-2.4,0.6-3.7,0.8c-1.7-3.9-1.7-7.5-1.1-11.3
				c0.4-2.1,0.6-4.2,0.6-6.3c0-29.6,0-59.2,0.1-88.8c0-3.3,0.1-6.7,0.8-9.9c2.1-9.7,0.9-19.6,1.2-29.4c0-1-0.2-2.2-0.6-3.1
				c-1.3-3-0.8-5.6,1.5-8c0.2,0,0.6-0.2,0.7-0.1c3.7,2.3,7.7,2.4,11.9,2.3c4.2,0,8.5,0.4,12.7,0.4c7.8,0,15.6-0.2,23.5-0.5
				c1.8-0.1,3.5-0.8,5.5-1.3c2.2,2.7,2.5,6.2,2.7,9.6c0.2,4.6,0.1,9.3,0,13.9c0,2.8-0.3,3.5-3,3.7c-3.9,0.2-8,0.3-11.8-0.5
				c-3.7-0.8-7.3-2.3-11.2-2.1c-1.1,0.1-2.3-0.5-3.4-0.9c-1.2-0.4-2.4-1-4.1-1.7c-0.1,3.5-0.3,6.4-0.4,9.7c-1.1-0.3-1.7-0.4-2.2-0.6
				c-0.4-0.2-0.8-0.5-1.2-0.7c-0.3,0.4-0.6,0.6-0.6,0.8c-0.4,8.9-1,17.7-1.3,26.6c-0.2,4.7,3.1,8.1,7.9,8.6c2.2,0.3,4.5,0.6,6.7,0.7
				c1,0,2.1-0.4,3-0.7c1.5-0.5,2.9-1.1,4.3-1.7c2,2.2,1.7,4.8,1.9,7c0.5,5.5,0.6,11.1,0.8,16.6c0.1,3.5-2.5,5.4-5.8,3.8
				c-4.3-2.1-8.7-1.9-13.2-1.4c-3,0.4-3.5,1.1-3.8,4.1c-0.5,4.6-1.4,9.2-1.4,13.8c0,5.9,0.4,11.9,2.9,17.5c0.3,0.7,1.5,1.5,2.4,1.5
				c5.3,0.1,10.6,0.4,15.9-0.1c2.8-0.2,5.5-1.8,8.2-2.8c1-0.4,1.9-1,2.9-1.4c4.3-1.4,6.5,0.2,6.6,4.7c0,8.1,0,16.2,0,24.3
				C673.8,473.9,673.7,475.2,673.5,476.9z"/>
			<path class="st0" d="M745.8,472.2c-2.5,0.5-5.1,1.3-7.6,1.6c-3,0.3-6.1,0.1-9.2,0c-2.5-0.1-3.3-0.7-3.8-3.2
				c-0.2-0.9-0.1-1.8-0.1-2.8c0-3.8,0-7.7,0-11.5c-0.1-11.4-0.3-22.8-0.5-34.2c0-0.8,0-1.6-0.2-2.4c-1.7-4.5-1.1-9.1-1.4-13.8
				c-0.2-3.8-1.4-7.6-1.4-11.4c0-3.7,1.2-7.3,1.4-11c0.3-4.4,0.1-8.7-1.2-13c-0.6-2-0.4-4.2-0.3-6.3c0.1-4.3-1.3-6.8-6.5-6.8
				c-5.3-0.1-10.6-0.2-15.9,0c-5,0.2-10-1.1-15-0.1c-1.5,0.3-2.7-0.3-3-1.9c-0.4-2.7-0.8-5.5-0.9-8.2c-0.2-4.7-0.2-9.5-0.2-14.2
				c0-3.7-0.1-7.4,0.2-11.1c0.2-3.1,2-4.1,4.1-2.1c3,2.9,6.4,2.4,9.6,1.9c5-0.8,9.8,0.1,14.5,1.4c6.2,1.6,12.3,1.4,18.5,0.4
				c1.8-0.3,3.7-0.5,5.5-0.9c2.6-0.7,5-0.5,7.3,0.6c1.6,0.8,3.1,0.5,4.5-0.4c1.6-1,3.2-0.9,4.9-0.4c7.4,1.8,14.9,2.3,22.5,1.5
				c3.3-0.4,6.3,0.2,9.7,1.8c-0.2,4.6-0.5,9.3-0.6,14.1c-0.2,4.5-0.2,9-0.3,13.5c0,3-0.5,3.8-3.5,4.1c-2.4,0.2-4.8,0-7.2,0.1
				c-6,0.1-11.9,0.3-17.9,0.4c-3,0-5.3,1.5-7.7,3c-0.1,3.3-0.4,6.6-0.4,9.9c0,24.8,0,49.6,0,74.5c0,7.3,0.7,14.5,2.1,21.7
				C746.1,468.6,745.8,470.2,745.8,472.2z"/>
			<path class="st0" d="M530.4,430.9c4.9-1,9.4-1.9,13.9-2.8c2.3-0.5,3.6,0.5,4.8,2.5c2.9,4.9,6.1,9.6,9.2,14.4
				c1.4,2.2,3.1,3.4,5.9,3c1.6-0.2,3.2,0,4.8,0c5.1,0,9.1-2.8,10.8-7.6c1.4-3.7,2.7-7.5,4.3-11.1c1.1-2.4,1.4-4.8,1.2-7.4
				c-0.3-3.8-0.5-7.6-2.2-11.2c-1.6-3.3-4.2-5.6-7.5-6.7c-7.9-2.7-15.8-5.2-23.7-7.8c-0.6-0.2-1.3-0.6-1.9-0.6
				c-4.1,0.2-6.7-2.4-8.8-5.4c-4.8-6.8-7.8-14.2-7.8-22.9c0-8.1,1-16.1,2.1-24.1c0.8-6.3,4-11.2,9.1-14.6c3.1-2.1,6.4-3.7,9.7-5.4
				c3.1-1.6,6.5-2.4,10.1-1.2c0.8-0.9,1.5-1.8,2.3-2.7c0.4,0,0.8,0,1.2,0.1c2.9,1,5.8,1.8,8.5,3c1.5,0.7,2.7,2.1,4,3.1
				c1.7,1.4,3.5,2.8,5.2,4.2c1.5,1.2,3.3,2.3,4.4,3.8c3.2,4.1,6.3,8.2,6.7,13.7c0.1,1.3,0.7,2.5,1.1,3.8c1.4,4.7-0.7,8.1-5.6,9.2
				c-0.4,0.1-0.8,0.2-1.2,0.2c-2.8-0.4-5.2,0.4-7.3,2.8c-0.7-0.9-1.3-1.6-1.6-2.3c-1.1-3-2.2-6-3-9.1c-1-3.8-3.9-5.9-6.9-7.9
				c-3.2-2.1-6.7-1.5-10,1.7c-4.1,4.1-8,8.5-9.2,14.5c-0.2,0.9-0.6,1.9-0.4,2.7c1.1,5.3,2.4,10.5,3.6,15.8c0.4,1.7,1.5,2.6,3.3,3
				c2.6,0.6,5.1,1.4,7.6,2.1c0.6,0.2,1.2,0.6,1.9,0.6c7.6,0,14,3.7,20.7,6.6c6,2.6,9.5,7.5,11.5,13.5c1.4,4.3,2.3,8.7,3.6,13
				c1.8,5.7,1.5,11.6,0.9,17.3c-1.1,10.4-5.4,19.5-12.7,27.1c-1.7,1.7-3.5,3.3-5,5.1c-2.3,2.8-5.6,3.3-8.8,4.2
				c-1.5,0.4-3.1,0.7-4.6,1.2c-8.8,2.8-17.2,2.1-24-4.6c-4.6-4.5-8.7-9.7-12.5-14.9c-4.3-5.9-5.9-12.9-7.8-19.9
				C530.1,432.4,530.3,431.7,530.4,430.9z"/>
			<path class="st0" d="M85.8,410.5c-0.6,3-1.3,5.6-1.5,8.2c-0.7,6.3-1.5,12.6-2.8,18.8c-0.8,3.8-1,7.9-1.2,11.8
				c-0.2,3.2-0.3,6.4,0,9.5c0.6,6.4-1.4,12.3-3.1,18.2c-0.5,1.7-1.5,2.8-3.2,3.1c-1.7,0.3-3.4,0.6-5.1,0.8c-2.2,0.3-4.6,0.2-6.7,0.8
				c-2.8,0.9-4.6,0-5.9-1.7c0.4-2.4,0.8-4.4,1.1-6.4c0.1-0.5,0-1.1,0.1-1.6c2-7.8,1.2-15.8,1.8-23.7c0.5-7.1,1.5-14.2,1.8-21.3
				c0.3-7.1,0.8-14.2-0.8-21.4c-0.8-3.6-0.2-7.6,0-11.4c0.2-3.6,0.9-7.1,1-10.6c0.2-12.5,0.2-24.9,0.4-37.4c0-1.7,0.5-3.4,0.6-5.1
				c0.1-3,0.1-6,0.2-9c0-0.9-0.1-1.9,0-2.8c0.2-2.2,1.3-3.2,3.1-2.2c6.8,3.3,13.9,2.4,21,1.7c0.9-0.1,1.9,0.1,2.7,0.4
				c6,2.6,12.5,3.1,18.8,4.7c1.9,0.5,3.4,1,4.6,2.6c0.9,1.3,2.1,2.3,3.4,3.3c4.3,3.5,6.9,8.4,9.6,13.1c0.5,0.8,0.4,2,0.6,3.1
				c1.5,9.3,0.7,18.6-1.5,27.6c-2.4,9.6-8.1,17.2-15.9,23.1c-0.8,0.6-2,0.6-3,1.1c-1.7,0.7-3.4,1.4-5,2.3c-1.7,1-3.2,1.4-5.2,1.1
				C92.5,410.7,89.2,410.7,85.8,410.5z M80,348.3c0,2.2,0,4.3,0,6.4c-0.2,9.4-0.4,18.8-0.5,28.2c0,2.6,0.4,5.3,0.6,7.9
				c0.2,2.7,2.1,4.7,4,6.1c1,0.8,3.2,0.3,4.9,0.3c2.4,0,4.9-0.5,7.1,0.1c3.1,0.8,4.8-0.4,6.2-2.8c0.8-1.4,1.7-2.7,2.2-4.2
				c2.6-7.5,2.2-15,0.5-22.6c-1.1-4.9-3.4-9-7.2-12c-4.6-3.6-10-5.9-15.6-7.6C81.7,348,81,348.2,80,348.3z"/>
			<path class="st0" d="M430.6,213.2c0.4,0.2,1.4,0.3,1.5,0.7c0.6,2.2,1.5,4.5,1.5,6.8c0,2.6-0.6,5.2-1.1,7.8
				c-0.6,2.9-0.6,2.8-4.3,2.5c0-2-0.3-4.1,0.1-6.2C428.8,221.1,429.7,217.4,430.6,213.2z"/>
			<path class="st0" d="M417.8,221.1c-1.2,0-2.3,0-3.5,0c-0.8-5.1-1-10-0.4-15.1c1.4,0,2.5,0,3.9,0
				C417.8,210.9,417.8,215.8,417.8,221.1z"/>
			<path class="st0" d="M423,215.7c0-3.1,0-6.2,0-9.3c3.6-1.2,4.3-0.9,4.4,2.6c0,1.3,0.1,2.6,0,4C427.2,215.8,426.5,216.2,423,215.7
				z"/>
			<path class="st0" d="M406.8,213.6c3.7-0.4,4-0.2,4.2,2.3c0.1,0.8,0,1.6,0,2.4c-0.1,2.9-0.3,3-3.9,2.4c-0.1-1.1-0.2-2.2-0.2-3.3
				C406.7,216.2,406.8,215,406.8,213.6z"/>
			<path class="st0" d="M410.6,170.5c-2.1,0.7-2.6-0.8-3-2c-0.9-2.5-1.7-5-2.4-7.5c-1.3-4.3-4.9-6.8-7.9-9.7c-0.6-0.6-2-0.4-3-0.6
				c-2.3-0.5-4.5-1.1-7.3-1.8c-5.3,2.9-8.8,8.1-10.7,14c-1.1,3.5-0.5,7.6-0.4,11.4c0,0.6,1.1,1.3,2.1,2.3c0-3.3,0-6.1,0-8.9
				c0.1-6.6,5.9-12.9,12.5-12.7c2.2,0.1,4.5,1.3,6.6,2.3c3.8,1.9,6.6,5.2,8.5,8.7c1.9,3.5,2.9,7.7,3.4,11.7c0.3,2.3-0.8,4.9-1.7,7.2
				c-0.3,0.7-2,0.8-3.4,1.3c-0.6-9.2-1.2-18-7.4-24.6c-3-0.2-5.7-0.4-8.4-0.6c-1.3-0.1-2.2,0.4-2.8,1.7c-1.1,2.3-2.6,4.3-2.5,7
				c0.1,2.6-0.3,5.3-0.2,7.9c0,1,0.8,2,1.2,3c0.3,0,0.6-0.1,0.8-0.1c0.2-0.8,0.5-1.6,0.5-2.4c0.1-1.3-0.2-2.7,0.1-4
				c0.5-2.3,1.1-4.9,3.8-5.5c2.8-0.7,5.4-0.7,7.5,2c2.2,2.7,3.4,5.5,3.4,9c0,2.3,0.6,4.7,0.9,7c0.2,1.3,0.2,2.6,0.3,3.9
				c-3.1,2.5-6,2.9-9.6,0.9c-3.3-1.9-7-3-10.6-4.3c-4.6-1.7-7.8-4.8-9.2-9.6c-1.4-4.7-1.3-9.4-0.8-14.2c0.1-1.3,0.4-2.7,1.1-3.7
				c2.9-4.3,5.8-8.5,8.9-12.6c1.2-1.5,2.8-3.4,4.4-3.7c3.2-0.6,6.5-1.1,9.8,0.2c7.2,3,11.8,8.3,14.2,15.6
				C411,164.3,411.2,165.9,410.6,170.5z"/>
			<path class="st0" d="M451.1,191.2c-9.8-0.2-17.3-3.7-21.1-13.3c-0.9-2.3-1.8-4.7-2.9-7c-2.3-4.7-2-9.5-0.4-14.3
				c2-5.9,5.8-9.9,11.9-12.3c3.3-1.3,5.7-0.6,8.5,0.4c10.1,3.5,15.1,11,17.3,20.9c0.1,0.6,0.3,1.3,0.2,2c-0.8,5.2-1.5,10.4-2.4,15.6
				c-0.6,3.5-3.5,5.3-5.9,7.2C455.2,191.4,452.9,191,451.1,191.2z M453.8,187.4c0.3,0,0.5,0.1,0.8,0.1c0.3-0.4,0.6-0.7,0.8-1.1
				c1-3.2,1.8-6.4,2.8-9.5c0.5-1.6-0.1-2.8-0.9-4.1c-1.3-2.1-2.7-4.2-3.7-6.5c-0.7-1.5-1.6-2.4-3.2-2.6c-1.7-0.3-3.4-0.6-5.1-0.6
				c-3.4,0-5.9,1.5-7.7,4.6c-1.3,2.2-1.8,4.2-0.7,6.7c0.7,1.6,0.9,3.5,1.4,5.3c0.2,0,0.5-0.1,0.7-0.1c0.2-2.8,0.3-5.6,0.5-8.3
				c2-0.4,3.6-1.1,5.1-1c4.9,0.4,9.1,5.3,9.1,10.3C453.7,182.8,453.8,185.1,453.8,187.4z M431.4,169.7c0.4-1.2,0.7-2.5,1.3-3.6
				c1.2-2.2,2.2-4.8,4-6.2c6.9-5.3,16.9-2.4,20.4,5.5c0.5,1.1,1,2.3,2.8,1.5c0-0.5,0.2-1.3,0-1.8c-2.1-3.2-4-6.6-6.6-9.3
				c-2.8-2.8-6.3-4.3-10.4-2c-1.8,1-4,1.4-6.1,1.7c-2,0.3-2.9,1.3-3.8,2.9C431,162,430.8,165.8,431.4,169.7z"/>
		</g>
	</g>
</g>
</svg>
